<?xml version="1.0" encoding="utf-8"?>
<!-- Generator: Adobe Illustrator 22.0.1, SVG Export Plug-In . SVG Version: 6.00 Build 0)  -->
<svg version="1.1" id="Layer_1" xmlns="http://www.w3.org/2000/svg" xmlns:xlink="http://www.w3.org/1999/xlink" x="0px" y="0px"
	 viewBox="0 0 403 800" style="enable-background:new 0 0 403 800;" xml:space="preserve">
<style type="text/css">
	.st0{fill:#C7A495;}
	.st1{fill:#F0C6B4;}
	.st2{fill:#FF8400;}
	.st3{fill:#FF9D26;}
	.st4{fill:#1D374E;}
	.st5{fill:#603913;}
	.st6{fill:#0F2034;}
	.st7{fill:#BA6000;}
	.st8{fill:#474747;}
	.st9{fill:#333333;}
	.st10{fill:#24D2C1;}
	.st11{fill:#0A8074;}
	.st12{fill:#16A89F;}
	.st13{fill:#3B3B3B;}
	.st14{fill:#787878;}
	.st15{fill:#454545;}
	.st16{fill:#232323;}
	.st17{fill:#E31B25;}
	.st18{fill:#0D0D0D;}
	.st19{fill:#FF3F4A;}
	.st20{fill:#9C251F;}
	.st21{fill:#939598;}
</style>
<g>
	<path class="st0" d="M71.8,72c1.1,16.5-8.1,32-8.1,32l16,16.9l16,9.4h18.4l13.1-11.1L115.4,83L94.1,66.7
		C94.1,66.7,71.8,67.3,71.8,72z"/>
	<path class="st1" d="M215.3,197.6c20.6,18,23.3,42.4,42.8,58.3c-8-0.7-16,9.2-17,15c-28.1-21.4-37.9-23.8-54.5-50.3
		c-4.8-7.9-13.3-14.6-16.4-19.8c-22.6-38.3,2.1-11.9,15.5-27.4c7.5-0.9,16-5.6,16-5.6S210.9,182.9,215.3,197.6z"/>
	<path class="st2" d="M139.9,87.2c-45.9,22.8,26.6,110.4,27.3,117.6c6.4,12.5,43.1-12.2,41.4-27.9c-5.6-11.5-11.1-21.7-25.9-49.2
		C168.4,95.3,155.1,80.3,139.9,87.2z"/>
	<path class="st3" d="M115.8,107.4c0,0,6.5,9.5-4.9,15.9c-15,9.7-47.9-21.1-47.9-21.1l-11.4,10.6l-2.8,6l-11.2,7.4l-11.5,9.2
		c0,0,22,91.8,21.5,99.6c-0.5,7.8,23.1,26.5,12.2,58.1c-3.6,6.4,17.4,33.3,49.3,29.5c-2.6-13.4,10.7-18.5,18.6-22.9
		c21.2-11.6,37.2-25.8,37.2-25.8s10.1-96.7,10.1-117.9c0-40.6-45.4-67.8-45.4-67.8L115.8,107.4z"/>
	<path class="st4" d="M104.9,74.6c56.4,18.5,59.9,67,59.9,67l-11.1,7.7c0,0-9-52.6-66.7-66.7C86.9,78.9,100.6,75.7,104.9,74.6z"/>
	<path class="st4" d="M88.2,318.4c18-47.7-2.4-135.2-2.4-135.2s55.6-22.7,81.7-50.6c12,51.6,1.4,138.8,1.4,138.8l-10.9,18.3
		l-32.5,27.8C125.5,317.6,83.3,334.2,88.2,318.4z"/>
	<path class="st4" d="M51.6,112.7c45.9,17.3,59.2,66.1,59.2,66.1l-18.1,7.1c0,0-6.1-50.9-55.2-59.8
		C37.6,122.4,47.4,113.8,51.6,112.7z"/>
	<path class="st1" d="M134,21.1c23.1,19.8,15.3,49.2,15.3,49.2s-6.1,41-10,45.2c-3.9,4.2-12.8,6.6-15.3,6.8
		c-7.7,0.7-30.4-17.5-34.3-22.3c-3.9-4.8-5-13.2-5-13.2s-11.2-4.7-14.4-19.4c-2.5-11.7,0-18.7,0-18.7l9.9-21.7L101.4,14h17.2
		C118.5,14,131.2,18.9,134,21.1z"/>
	<path class="st5" d="M70.4,67.5c0,0,1.5-12.2,8.6-4.6c3.4,3.6,3.5,4.7,6.1,8.9c2.6,4.2,8.5,8.6,10.1,6.9c1.6-1.7,5.3-19.6,3.5-25.7
		c-1.9-6.1-10.6-11.3-3.3-19.5c7.3-8.2,33.1,16,42.5,6.8c6.5-7-15-56.3-55.6-29.2C52.9,30.7,70.4,67.5,70.4,67.5z"/>
	<path class="st5" d="M161.8,601c11,15.4,41.7,16.5,53.5,31.2c3.7,4.2,3.9,16.6-2.5,19.6c-19.1,4.6-51.1-11.9-51.1-11.9
		s-36.8-2.1-40.7-8.2c-5-7.7-3.6-27.7-3.6-27.7S158.9,596.8,161.8,601z"/>
	<path class="st6" d="M173.2,314.8c11.1,68.7,2.7,144,2.6,164.2c-6.4,53.9-0.9,109.3-0.5,123.5c0.3,11.8-55.3,23.5-60.3,2.6
		c-3.6-23.5,0.6-83.9,9.4-117.7c3.4-13.2-20.7-121.4-20.7-121.4S171.9,301,173.2,314.8z"/>
	<path class="st5" d="M53.4,647.6c-0.7,7.5,15.2,38.2,9.5,47.3c-5.1,8.2-23.5,4.9-33.5-2.9c-10.1-7.9-13.7-28.4-13.7-41.7
		c0-9.4,0.9-19.2,0.9-19.2L53,634C53,634,54.1,640.1,53.4,647.6z"/>
	<path class="st4" d="M168.8,271.4c0,0-53,39.9-74.2,38.8c-26.4-1.3-41.1-21.4-41.1-21.4s-11.9,20.8-15.8,34.8
		c-3.9,14-4.3,144.5-11.2,162.7c-6.9,18.3-11,26.7-14.3,40.7c-3.3,14-5,93.8-2.7,116.1c2.2,22.3,48,17.8,53.1,1.4
		c-1.5-58.1-3.3-112,8.5-130.6c16.4-25.8,39.3-136.7,40.7-140.8c29.6-15.3,61.3-52.8,61.3-58.5C173.2,307.5,171.9,290.7,168.8,271.4
		z"/>
	<g>
		<g>
			<g>
				<g>
					<polygon class="st7" points="244.8,784.9 243.3,785.9 246.1,770.3 234.3,763.6 235.9,762.7 247.6,769.4 					"/>
					<polygon class="st7" points="243.3,785.9 237.1,782.3 234.3,763.6 246.1,770.3 					"/>
				</g>
				<g>
					<path class="st8" d="M243,789.4c0,5.9-4.1,8.2-9.2,5.3c-5.1-2.9-9.2-10.1-9.2-15.9c0-5.9,4.1-8.2,9.2-5.3
						C238.9,776.4,243,783.6,243,789.4z"/>
					<path class="st9" d="M251.4,784.6c0-5.9-4.1-13-9.2-15.9c-2.5-1.4-4.7-1.6-6.4-0.7l0,0l-8.5,4.9c1.7-0.9,3.9-0.8,6.5,0.7
						c5.1,2.9,9.2,10.1,9.2,15.9c0,2.8-0.9,4.8-2.5,5.8l0,0l8.4-4.8l0,0C250.5,789.4,251.4,787.4,251.4,784.6z"/>
					<path class="st10" d="M240.4,787.9c0,4.2-2.9,5.9-6.5,3.8c-3.6-2.1-6.5-7.2-6.5-11.3c0-4.2,2.9-5.9,6.5-3.8
						C237.4,778.7,240.4,783.7,240.4,787.9z"/>
					<path class="st11" d="M228.1,780.9c0,3.6,2.5,8,5.7,9.9c1.8,1.1,3.4,1,4.5,0.1c-1,0.7-2.5,0.6-4.1-0.4
						c-3.2-1.8-5.7-6.2-5.7-9.9c0-1.5,0.5-2.7,1.2-3.3C228.7,777.8,228.1,779.1,228.1,780.9z"/>
					<path class="st12" d="M228.5,780.5c0,3.7,2.5,8.1,5.7,9.9c1.6,0.9,3,1,4.1,0.4h0c0.8-0.7,1.2-1.8,1.2-3.3
						c0-3.6-2.5-8.1-5.7-9.9c-1.6-0.9-3.1-1-4.1-0.4c0,0,0,0,0,0C229,777.9,228.5,779,228.5,780.5z"/>
					<path class="st13" d="M230.1,782c0,2.3,1.7,5.2,3.7,6.4c1.4,0.8,2.7,0.6,3.3-0.5c-0.7,0.3-1.5,0.2-2.5-0.3
						c-2-1.1-3.7-4-3.7-6.4c0-0.7,0.1-1.2,0.4-1.6C230.6,779.9,230.1,780.8,230.1,782z"/>
					<path class="st14" d="M230.9,781.2c0,2.3,1.6,5.2,3.7,6.4c0.9,0.6,1.8,0.7,2.5,0.3c0.2-0.4,0.4-1,0.4-1.7
						c0-2.3-1.6-5.2-3.7-6.4c-1-0.6-1.9-0.6-2.5-0.3C231.1,780,230.9,780.5,230.9,781.2z"/>
				</g>
				<g>
					<polygon class="st7" points="237.1,789.4 235.5,790.3 238.3,774.8 226.6,768 228.1,767.1 239.9,773.9 					"/>
					<polygon class="st2" points="235.5,790.3 229.3,786.7 226.6,768 238.3,774.8 					"/>
					<path class="st7" d="M234.4,786.5c-0.3,0.8-1.1,1-2,0.5c-1.2-0.7-2.1-2.3-2.1-3.7c0-0.8,0.3-1.4,0.9-1.5
						c-0.1,0.2-0.1,0.5-0.1,0.8c0,1.4,1,3,2.1,3.7C233.7,786.5,234.1,786.5,234.4,786.5z"/>
					<path class="st3" d="M234.5,785.7c0,0.3,0,0.6-0.1,0.8c-0.4,0.1-0.7,0-1.2-0.2c-1.2-0.7-2.1-2.3-2.1-3.7c0-0.3,0.1-0.6,0.1-0.8
						h0c0.4,0,0.8,0,1.2,0.3C233.6,782.7,234.5,784.4,234.5,785.7z"/>
				</g>
				<g>
					<polygon class="st7" points="247.6,769.4 238.3,774.8 238.3,773.3 247.6,767.9 					"/>
					<polygon class="st2" points="238.3,774.8 226.6,768 226.6,766.5 238.3,773.3 					"/>
					<polygon class="st2" points="247.6,767.9 238.3,773.3 226.6,766.5 235.9,761.1 					"/>
				</g>
			</g>
			<g>
				<g>
					<polygon class="st7" points="379.5,707.2 377.9,708.1 380.7,692.6 369,685.8 370.5,684.9 382.3,691.7 					"/>
					<polygon class="st7" points="377.9,708.1 371.7,704.5 369,685.8 380.7,692.6 					"/>
				</g>
				<g>
					<path class="st8" d="M377.7,711.7c0,5.9-4.1,8.2-9.2,5.3c-5.1-2.9-9.2-10.1-9.2-15.9c0-5.9,4.1-8.2,9.2-5.3
						C373.5,698.7,377.7,705.8,377.7,711.7z"/>
					<path class="st9" d="M386.1,706.8c0-5.9-4.1-13-9.2-15.9c-2.5-1.4-4.7-1.6-6.4-0.7l0,0l-8.5,4.9c1.7-0.9,3.9-0.8,6.5,0.7
						c5.1,2.9,9.2,10.1,9.2,15.9c0,2.8-0.9,4.8-2.5,5.8v0l8.4-4.9l0,0C385.1,711.7,386.1,709.7,386.1,706.8z"/>
					<path class="st10" d="M375,710.2c0,4.2-2.9,5.8-6.5,3.8c-3.6-2.1-6.5-7.1-6.5-11.3c0-4.2,2.9-5.9,6.5-3.8
						C372.1,700.9,375,706,375,710.2z"/>
					<path class="st11" d="M362.8,703.1c0,3.6,2.5,8,5.7,9.9c1.8,1.1,3.4,1,4.5,0.1c-1,0.7-2.5,0.6-4.1-0.4
						c-3.2-1.8-5.7-6.2-5.7-9.9c0-1.5,0.5-2.7,1.2-3.3C363.4,700.1,362.8,701.3,362.8,703.1z"/>
					<path class="st12" d="M363.2,702.8c0,3.7,2.5,8.1,5.7,9.9c1.6,0.9,3.1,1,4.1,0.4h0c0.8-0.7,1.2-1.8,1.2-3.3
						c0-3.6-2.6-8.1-5.7-9.9c-1.6-0.9-3.1-1-4.1-0.4c0,0,0,0,0,0C363.6,700.1,363.2,701.3,363.2,702.8z"/>
					<path class="st13" d="M364.8,704.3c0,2.3,1.6,5.2,3.7,6.4c1.4,0.8,2.7,0.6,3.3-0.5c-0.6,0.3-1.5,0.2-2.5-0.3
						c-2-1.2-3.7-4-3.7-6.4c0-0.7,0.1-1.2,0.4-1.7C365.3,702.2,364.8,703,364.8,704.3z"/>
					<path class="st14" d="M365.6,703.5c0,2.3,1.6,5.2,3.7,6.4c0.9,0.6,1.8,0.7,2.5,0.3c0.3-0.4,0.4-1,0.4-1.7
						c0-2.3-1.6-5.2-3.7-6.4c-1-0.6-1.9-0.6-2.5-0.3C365.7,702.2,365.6,702.8,365.6,703.5z"/>
				</g>
				<g>
					<polygon class="st7" points="371.8,711.7 370.2,712.6 373,697.1 361.2,690.3 362.8,689.4 374.5,696.2 					"/>
					<polygon class="st2" points="370.2,712.6 364,709 361.2,690.3 373,697.1 					"/>
					<path class="st7" d="M369.1,708.7c-0.3,0.7-1.1,1-2,0.4c-1.2-0.7-2.1-2.3-2.1-3.7c0-0.8,0.4-1.4,0.9-1.5
						c-0.1,0.2-0.1,0.5-0.1,0.8c0,1.3,0.9,3,2.1,3.7C368.3,708.7,368.7,708.8,369.1,708.7z"/>
					<path class="st3" d="M369.2,708c0,0.3,0,0.6-0.1,0.8c-0.3,0.1-0.7,0-1.2-0.3c-1.2-0.7-2.1-2.3-2.1-3.7c0-0.3,0.1-0.6,0.1-0.8h0
						c0.3,0,0.7,0,1.2,0.3C368.3,705,369.2,706.6,369.2,708z"/>
				</g>
				<g>
					<polygon class="st7" points="382.3,691.7 373,697.1 373,695.6 382.3,690.2 					"/>
					<polygon class="st2" points="373,697.1 361.2,690.3 361.2,688.8 373,695.6 					"/>
					<polygon class="st2" points="382.3,690.2 373,695.6 361.2,688.8 370.5,683.4 					"/>
				</g>
			</g>
			<g>
				<g>
					<polygon class="st7" points="150.4,730.4 148.9,731.3 151.7,715.8 139.9,709 141.5,708.1 153.2,714.9 					"/>
					<polygon class="st7" points="148.9,731.3 142.7,727.7 139.9,709 151.7,715.8 					"/>
				</g>
				<g>
					<path class="st8" d="M148.6,734.9c0,5.9-4.1,8.2-9.2,5.3c-5.1-2.9-9.2-10.1-9.2-15.9c0-5.9,4.1-8.2,9.2-5.3
						C144.5,721.9,148.6,729,148.6,734.9z"/>
					<path class="st9" d="M157,730.1c0-5.9-4.1-13-9.2-15.9c-2.5-1.4-4.7-1.6-6.4-0.7l0,0l-8.5,4.9c1.7-0.9,3.9-0.8,6.4,0.7
						c5.1,2.9,9.2,10.1,9.2,15.9c0,2.8-0.9,4.8-2.5,5.8l0,0l8.4-4.9l0,0C156,734.9,157,732.9,157,730.1z"/>
					<path class="st10" d="M145.9,733.4c0,4.2-2.9,5.8-6.5,3.8c-3.6-2.1-6.5-7.2-6.5-11.3c0-4.1,2.9-5.8,6.5-3.8
						C143,724.1,145.9,729.2,145.9,733.4z"/>
					<path class="st11" d="M133.7,726.3c0,3.6,2.6,8.1,5.7,9.9c1.8,1.1,3.4,1,4.5,0.1c-1,0.6-2.5,0.6-4.1-0.4
						c-3.1-1.8-5.7-6.2-5.7-9.9c0-1.5,0.5-2.7,1.2-3.4C134.3,723.3,133.7,724.5,133.7,726.3z"/>
					<path class="st12" d="M134.1,726c0,3.6,2.5,8,5.7,9.9c1.6,0.9,3.1,1,4.1,0.4c0,0,0,0,0,0c0.8-0.7,1.2-1.8,1.2-3.3
						c0-3.6-2.6-8.1-5.7-9.9c-1.6-0.9-3-1-4.1-0.4c0,0,0,0,0,0C134.6,723.3,134.1,724.5,134.1,726z"/>
					<path class="st13" d="M135.7,727.5c0,2.3,1.6,5.2,3.7,6.4c1.4,0.8,2.7,0.6,3.3-0.5c-0.7,0.3-1.5,0.2-2.5-0.3
						c-2-1.2-3.7-4-3.7-6.4c0-0.7,0.1-1.2,0.4-1.6C136.2,725.4,135.7,726.2,135.7,727.5z"/>
					<path class="st14" d="M136.5,726.7c0,2.3,1.7,5.2,3.7,6.4c0.9,0.6,1.8,0.6,2.5,0.3c0.2-0.4,0.4-1,0.4-1.7
						c0-2.3-1.6-5.2-3.7-6.4c-1-0.5-1.8-0.6-2.5-0.3C136.7,725.4,136.5,726,136.5,726.7z"/>
				</g>
				<g>
					<polygon class="st7" points="142.7,734.9 141.1,735.8 143.9,720.3 132.2,713.5 133.7,712.6 145.5,719.4 					"/>
					<polygon class="st2" points="141.1,735.8 134.9,732.2 132.2,713.5 143.9,720.3 					"/>
					<path class="st7" d="M140,731.9c-0.3,0.8-1.1,1-2,0.4c-1.2-0.7-2.1-2.3-2.1-3.7c0-0.8,0.3-1.4,0.9-1.5
						c-0.1,0.2-0.1,0.5-0.1,0.8c0,1.4,1,3,2.1,3.7C139.3,731.9,139.7,732,140,731.9z"/>
					<path class="st3" d="M140.1,731.2c0,0.3,0,0.6-0.1,0.8c-0.3,0.1-0.7,0-1.2-0.3c-1.2-0.7-2.1-2.3-2.1-3.7c0-0.3,0.1-0.6,0.1-0.8
						h0c0.3,0,0.8,0,1.2,0.3C139.2,728.2,140.1,729.8,140.1,731.2z"/>
				</g>
				<g>
					<polygon class="st7" points="153.2,714.9 143.9,720.3 143.9,718.8 153.2,713.4 					"/>
					<polygon class="st2" points="143.9,720.3 132.2,713.5 132.2,712 143.9,718.8 					"/>
					<polygon class="st2" points="153.2,713.4 143.9,718.8 132.2,712 141.5,706.6 					"/>
				</g>
			</g>
		</g>
		<g>
			<polygon class="st3" points="238.3,427.2 132.2,365.8 276.1,282.7 382.3,344 			"/>
			<polygon class="st7" points="238.3,773.3 238.3,427.2 382.3,344 382.3,690.2 			"/>
			<g>
				<polygon class="st15" points="363.3,516.6 363.3,629.9 257.3,691.2 257.3,687 359.3,628.1 359.3,518.9 				"/>
				<polygon class="st16" points="359.3,518.9 359.3,628.1 257.3,687 257.3,577.8 				"/>
				<g>
					<path class="st12" d="M288.7,577.7l9.2,5.3l-1.9,3.5c0,0.3,0.1,0.5,0.1,0.8c0.2,7.1-4.5,16-10.6,19.8c-0.2,0.1-0.5,0.3-0.7,0.4
						l-1.9,3.5l-9.3-5.4l0,0c-2.1-1.1-3.4-3.6-3.5-7.1c-0.2-7.1,4.5-16,10.6-19.7C283.8,576.7,286.6,576.5,288.7,577.7z"/>
					<path class="st11" d="M289.8,583.9c-6.1,3.8-10.8,12.6-10.6,19.7c0.2,7.1,5.3,9.9,11.4,6.1c6.1-3.8,10.8-12.6,10.6-19.8
						C301,582.9,295.9,580.1,289.8,583.9z"/>
				</g>
				<g>
					<path class="st12" d="M288.7,624.7l9.2,5.3l-1.9,3.5c0,0.3,0.1,0.5,0.1,0.8c0.2,7.1-4.5,16-10.6,19.7c-0.2,0.1-0.5,0.3-0.7,0.4
						l-1.9,3.5l-9.3-5.4l0,0c-2.1-1.1-3.4-3.6-3.5-7.1c-0.2-7.2,4.5-16,10.6-19.8C283.8,623.7,286.6,623.5,288.7,624.7z"/>
					<path class="st11" d="M289.8,630.9c-6.1,3.8-10.8,12.6-10.6,19.7c0.2,7.1,5.3,9.9,11.4,6.1c6.1-3.8,10.8-12.6,10.6-19.7
						C301,629.9,295.9,627.2,289.8,630.9z"/>
				</g>
			</g>
			<polygon class="st2" points="238.3,773.3 132.2,712 132.2,365.8 238.3,427.2 			"/>
		</g>
		<g>
			<polygon class="st10" points="270.1,455.2 257.7,448 274.5,438.3 287,445.4 			"/>
			<polygon class="st11" points="270,529.7 270.1,455.2 287,445.4 286.9,519.9 			"/>
			<polygon class="st12" points="270,529.7 257.6,522.5 257.7,448 270.1,455.2 			"/>
		</g>
		<g>
			<polygon class="st10" points="314.4,429.6 302,422.4 318.8,412.7 331.3,419.9 			"/>
			<polygon class="st11" points="314.3,504.1 314.4,429.6 331.3,419.9 331.2,494.4 			"/>
			<polygon class="st12" points="314.3,504.1 301.9,496.9 302,422.4 314.4,429.6 			"/>
		</g>
		<g>
			<polygon class="st17" points="150.3,460.2 150.3,494.2 110.4,471.2 110.4,437.2 			"/>
			<polygon class="st3" points="205.1,428.7 150.3,460.2 110.4,437.2 165.1,405.7 			"/>
			<polygon class="st7" points="205.1,428.7 205.1,462.7 150.3,494.2 150.3,460.2 			"/>
		</g>
		<g>
			<polygon class="st16" points="71.3,507.6 71.2,548.4 23.4,520.8 23.4,480 			"/>
			<polygon class="st15" points="160.5,456.3 71.3,507.6 23.4,480 112.7,428.7 			"/>
			<polygon class="st18" points="160.5,456.3 160.5,497.1 71.2,548.4 71.3,507.6 			"/>
			<g>
				<path class="st17" d="M129,453.8v-6.2l-2.3-0.1c-0.1-0.1-0.3-0.2-0.4-0.3c-3.6-2.2-9.5-2.4-13.2-0.4c-0.1,0.1-0.3,0.2-0.4,0.3
					l-2.3-0.1v6.3l0,0c-0.1,1.4,0.8,2.8,2.6,3.9c3.6,2.2,9.5,2.4,13.2,0.4C128,456.6,129,455.2,129,453.8z"/>
				<path class="st19" d="M126.2,451.4c-3.7,2-9.6,1.8-13.2-0.4c-3.6-2.2-3.5-5.6,0.2-7.6c3.7-2,9.6-1.8,13.2,0.4
					C130,446,129.9,449.4,126.2,451.4z"/>
			</g>
			<g>
				<path class="st7" d="M102.5,469v-6.2l-2.3-0.1c-0.1-0.1-0.3-0.2-0.4-0.3c-3.6-2.2-9.5-2.4-13.2-0.4c-0.1,0.1-0.3,0.2-0.4,0.2
					l-2.3-0.1v6.3l0,0c0,1.4,0.8,2.8,2.6,3.9c3.6,2.2,9.5,2.4,13.2,0.4C101.5,471.8,102.5,470.4,102.5,469z"/>
				<path class="st2" d="M99.6,466.6c-3.7,2-9.6,1.8-13.2-0.4c-3.6-2.2-3.5-5.6,0.2-7.6c3.7-2,9.6-1.8,13.2,0.4
					C103.4,461.3,103.3,464.7,99.6,466.6z"/>
			</g>
			<g>
				<path class="st12" d="M75,485v-6.3l-2.3-0.1c-0.1-0.1-0.2-0.2-0.4-0.3c-3.6-2.2-9.5-2.4-13.2-0.4c-0.2,0.1-0.3,0.2-0.4,0.2
					l-2.3-0.1v6.3l0,0c0,1.4,0.8,2.8,2.6,3.9c3.6,2.2,9.5,2.4,13.2,0.4C74,487.8,75,486.4,75,485z"/>
				<path class="st10" d="M72.1,482.6c-3.7,2-9.6,1.8-13.2-0.4c-3.6-2.2-3.5-5.6,0.2-7.6c3.7-2,9.6-1.8,13.2,0.4
					C75.9,477.2,75.8,480.6,72.1,482.6z"/>
			</g>
			<g>
				<polygon class="st10" points="86.4,516.9 80.2,513.3 88.7,508.4 94.9,512 				"/>
				<polygon class="st11" points="86.4,535.2 86.4,516.9 94.9,512 94.9,530.3 				"/>
				<polygon class="st12" points="86.4,535.2 80.1,531.6 80.2,513.3 86.4,516.9 				"/>
			</g>
			<g>
				<polygon class="st3" points="118.2,498.6 111.9,495 120.4,490.1 126.7,493.7 				"/>
				<polygon class="st7" points="118.2,516.9 118.2,498.6 126.7,493.7 126.7,512 				"/>
				<polygon class="st2" points="118.2,516.9 111.9,513.3 111.9,495 118.2,498.6 				"/>
			</g>
			<g>
				<polygon class="st19" points="150,480.3 143.7,476.6 152.2,471.7 158.5,475.3 				"/>
				<polygon class="st20" points="149.9,498.6 150,480.3 158.5,475.3 158.4,493.7 				"/>
				<polygon class="st17" points="149.9,498.6 143.7,494.9 143.7,476.6 150,480.3 				"/>
			</g>
		</g>
	</g>
	<path class="st21" d="M209.7,343.9c1.4,5.4-4.4,16.8-18.6,17.2c-9.6,0.3-12.5-6.2-23.1-8.5c-10.6-2.3-19.9,0.4-33.9-9.6
		c-7.2-3.4,1.1-19.2,12.4-21.4c8.9,2.2,29.9-6.5,42.5-0.6C192.6,322.7,207,333.8,209.7,343.9z"/>
	<path class="st1" d="M68.4,278.4c27.9,10,53.5,32.1,78,43.1C134.8,325.1,134,343,134,343c-13.6-9.4-90.1-12.3-102.9-56.3
		c-1.4-20.2-4.1-39.3-3.7-46c1.2-19.4,9,5.2,25.5,0c6.4,2.9,11.8-4.1,14.3,3.4C68.9,248.8,66.8,261.6,68.4,278.4z"/>
	<path class="st2" d="M32.3,133.2C-17.2,145,18.9,253.1,21,265c1.8,13.9,48.8,8.3,52.5-7C71.3,224.8,60,187.3,60,187.3
		C67.5,157,40.6,132.1,32.3,133.2z"/>
	<path class="st21" d="M290.5,308.8c-16,4.3-14.3-20.4-24.5-18.8c-7,1.1,2.5,19.4-2.2,19.6c-9.6,0.2-10.9-12.2-13-14.7
		c-6.8-8.4-5.3-16.4-9.6-24c0,0,1-15.5,17-15c7.8,5.6,18.5,9.2,29.7,20.2C295.1,281.4,297.7,306.9,290.5,308.8z"/>
	<g>
		<g>
			<path class="st18" d="M253.7,405.3l97.8-56.4c0.5-0.3,0.7-0.7,0.7-1.1l0,0l0.2-8.6l-3.4,0.3l0.2,0.7l-30.7-17.7
				c-1-0.6-2.6-0.6-3.5,0l-95.5,55.1l-3-1l-0.2,8.6c0,0,0,0,0,0l0,0l0,0c0,0.4,0.3,0.7,0.7,1l33.2,19.2
				C251.2,405.8,252.7,405.8,253.7,405.3z"/>
			<path class="st15" d="M217.2,375.5L315,319c1-0.6,2.6-0.6,3.5,0l33.2,19.2c1,0.6,1,1.5,0,2L254,396.7c-1,0.6-2.6,0.6-3.5,0
				l-33.2-19.2C216.3,376.9,216.3,376,217.2,375.5z"/>
		</g>
		<path class="st15" d="M177.5,245.4l167.3-96.6c0.9-0.5,1.7-0.5,2.2-0.1l0,0l13,7.1l-3.3,4.8l-1-0.8v113.8c0,1.9-1.4,4.3-3,5.2
			L189.3,373l-1.1,5.3l-12.9-7c0,0,0,0-0.1,0l0,0l0,0c-0.5-0.3-0.9-1-0.9-1.9V250.7C174.4,248.7,175.8,246.4,177.5,245.4z"/>
		<path class="st18" d="M190.4,378.2l167.3-96.6c1.7-1,3-3.3,3-5.2V157.6c0-1.9-1.4-2.7-3-1.7l-167.3,96.6c-1.7,1-3,3.3-3,5.3v118.8
			C187.4,378.4,188.8,379.2,190.4,378.2z"/>
		<g>
			<polygon class="st15" points="314.6,265.5 258.4,298 250.7,294.3 306.9,261.9 			"/>
			<polygon class="st18" points="314.6,265.5 314.6,342.4 258.4,374.8 256.6,343.3 258.4,298 			"/>
			<polygon class="st16" points="258.4,298 258.4,374.8 250.7,370.5 250.7,294.3 			"/>
		</g>
	</g>
</g>
</svg>
