<svg xmlns="http://www.w3.org/2000/svg" xmlns:xlink="http://www.w3.org/1999/xlink" viewBox="0 0 1049.09 172.28"><defs><linearGradient id="linear-gradient" y1="64.98" x2="264.61" y2="64.98" gradientUnits="userSpaceOnUse"><stop offset="0" stop-color="#f05141"/><stop offset="0.5" stop-color="#f26640"/><stop offset="1" stop-color="#f47b40"/></linearGradient></defs><title>Asset 1</title><g id="Layer_2" data-name="Layer 2"><g id="Layer_1-2" data-name="Layer 1"><path d="M404.6,108.06l4.7-17.52,14.88-55.46,4.7-17.51a28,28,0,0,0,.94-6.66Q429.82.05,416,.05H345c4.41,4,4,11,4,11a26.62,26.62,0,0,1-.93,6.54l-4.7,17.51h34.14q4.55,0,4.55,3.62a8.83,8.83,0,0,1-.35,2.22L370,84.7q-1.75,5.85-7.47,5.84H328.5l-9.39,35h63.3Q399.81,125.57,404.6,108.06Z" style="fill:#fff"/><path d="M500.77.05H432.66c6,3.74,5.16,10.86,5.16,10.86a28,28,0,0,1-.94,6.66l-4.7,17.51H473.3L458.36,90.54H417.3l-4.71,17.52s-.1.38-.31,1a32,32,0,0,1-1.79,4.64c-1.7,3.8-4.5,8.68-8.55,11.85H449l-1.51,5.84q-1.63,5.84-7.48,5.84H403.6l-10.85,35h67.12q17.52-.12,22.19-17.52L517.63,22A17.45,17.45,0,0,0,500.77.05Z" style="fill:#fff"/><path d="M412.28,109.08c.21-.64.31-1,.31-1C412.5,108.41,412.39,108.74,412.28,109.08Z"/><path d="M166.16.05h0" style="fill:none;stroke:#ef4e27;stroke-linecap:round;stroke-linejoin:round;stroke-width:0px"/><path d="M264.61,130a126.22,126.22,0,0,1-18.07-7.32,132.44,132.44,0,0,1-34.33-24.51,136.21,136.21,0,0,1-21.65-27.95C180.05,52.27,169.47,29.35,166.16.05L148.91,0V.06H0V7.55A13.35,13.35,0,0,0,13.35,20.9H148.28c1.05,4.7,2.4,10.09,4.13,15.9h-129v7.49A13.36,13.36,0,0,0,36.8,57.64H159.73c2.16,5.25,4.63,10.6,7.43,15.9H52.88V81A13.36,13.36,0,0,0,66.24,94.38H180.39A114.48,114.48,0,0,0,195,110.28H78.27v7.49a13.33,13.33,0,0,0,8,12.19H264.61Z" style="fill:url(#linear-gradient)"/><path d="M335.37,35.08l4.7-17.51A26.62,26.62,0,0,0,341,11q0-11-13.78-11H175.63a172.32,172.32,0,0,0,15.21,51.57l4.44-16.54h29.07l-13,48.67a138.29,138.29,0,0,0,33.19,28.81l20.8-77.48h23.35c2.34,0,3.76.72,4.3,2.15l-23.26,86.86-.23.87-12.67,47.32h41.8l12.48-46.71,9.39-35Z" style="fill:#fff"/><path d="M563.18,28.9h22.18l11.09,76.19H578.07l-1.65-13.86H552.09L546,105.09H527.85Zm11.6,46.42L571.7,44.1,558.76,75.32Z" style="fill:#fff"/><path d="M604.35,92.67a43.55,43.55,0,0,1,.52-6.88l5.75-35.94h17.66L623,83.43a12.12,12.12,0,0,0-.1,1.85q0,4.52,5.34,4.52a13.14,13.14,0,0,0,5.34-1.08,22.65,22.65,0,0,0,4.93-3l5.65-35.84H662l-8.73,55.24H637.42l-1-5.44a37.86,37.86,0,0,1-8.62,4.68,30.4,30.4,0,0,1-10,1.38Q604.36,105.71,604.35,92.67Z" style="fill:#fff"/><path d="M674.33,102Q670,98.84,670,92.26a56.15,56.15,0,0,1,.93-9.76l3.49-18.58h-8.53l1.85-11.3,9.55-2.77L682,34.34h14.06l-2.46,15.51h12l-2.15,14.07h-12l-3,18.58a30.3,30.3,0,0,0-.62,4.73,3.73,3.73,0,0,0,1.08,3,6.13,6.13,0,0,0,3.44,1.13l6.16.61-2.06,13.14h-8.93Q678.7,105.09,674.33,102Z" style="fill:#fff"/><path d="M713.92,100.78q-5.55-4.92-5.54-14.48a66.55,66.55,0,0,1,.82-10.57q1.74-11,5.28-16.64a18.22,18.22,0,0,1,9.4-7.75q5.85-2.1,15.61-2.11,8.93,0,13.71,2.16a12.18,12.18,0,0,1,6.57,6.47q1.8,4.3,1.8,11.71a74.14,74.14,0,0,1-.93,11.19q-1.53,10-5.13,15.35a18.82,18.82,0,0,1-9.5,7.5q-5.91,2.1-15.35,2.1Q719.47,105.71,713.92,100.78Zm24-10.32a7.5,7.5,0,0,0,3-3.9A43.36,43.36,0,0,0,743,78.19a60.91,60.91,0,0,0,.92-9.34q0-3.28-1.54-4.52c-1-.82-2.77-1.23-5.23-1.23a9.89,9.89,0,0,0-5.39,1.23,8.29,8.29,0,0,0-3,4.36,51.92,51.92,0,0,0-2.06,9.5,41.51,41.51,0,0,0-.72,7.29c0,2.26.52,3.84,1.54,4.73s2.71,1.33,5,1.33A11.06,11.06,0,0,0,737.9,90.46Z" style="fill:#fff"/><path d="M791.86,102.94,794,88.87q9.35.93,23,.93c4.17,0,7.17-.43,9-1.29a5.89,5.89,0,0,0,3.24-4.88l.3-1.84a10.25,10.25,0,0,0,.11-1.65,3.58,3.58,0,0,0-1.8-3.44q-1.8-1-6-1h-5Q808,75.73,802.9,71a16.16,16.16,0,0,1-5.09-12.42,33,33,0,0,1,.31-4.32l.93-5.95q1.74-10.68,8.83-15.35t19.4-4.67a94,94,0,0,1,23.52,2.87l-2.16,14q-9.85-.83-23.61-.83a13.17,13.17,0,0,0-6.53,1.34,6.11,6.11,0,0,0-2.82,4.72l-.31,1.85a15.88,15.88,0,0,0-.2,1.95,4.48,4.48,0,0,0,1.43,3.65A7.07,7.07,0,0,0,821.12,59h5.45q9.75,0,15.09,4.62A15.36,15.36,0,0,1,847,75.83a27.66,27.66,0,0,1-.31,4L845.56,87a23.89,23.89,0,0,1-4,10.53,18,18,0,0,1-8.83,6.11c-3.9,1.37-9,2-15.3,2A104.28,104.28,0,0,1,791.86,102.94Z" style="fill:#fff"/><path d="M855.93,100.88q-4.09-4.81-4.1-14.37a49.66,49.66,0,0,1,.56-7.39c.38-2.54.6-4,.67-4.32q2.06-12.93,9.14-19.25t20.33-6.32a50.51,50.51,0,0,1,13.81,1.85,29.7,29.7,0,0,1,10.32,4.83l-7.8,49.18H883l-1-5.44a24.41,24.41,0,0,1-6.88,4.16,22,22,0,0,1-8.73,1.9A13.15,13.15,0,0,1,855.93,100.88Zm23.93-10.32a25.77,25.77,0,0,0,3.9-2.41l3.7-23.62a14.67,14.67,0,0,0-5.75-1.13,9.32,9.32,0,0,0-7.55,3.24q-2.71,3.24-3.75,9.29a45.81,45.81,0,0,0-.82,7.4,11.28,11.28,0,0,0,1.39,5.9,4.71,4.71,0,0,0,4.36,2.31A9.86,9.86,0,0,0,879.86,90.56Z" style="fill:#fff"/><path d="M916,101.6a11.15,11.15,0,0,1-4.58-9.34,47.8,47.8,0,0,1,.31-6.47l9.45-59H938.8l-8.31,52.88q-.82,5.75-.83,7.19c0,1.71.4,2.89,1.18,3.54a7.24,7.24,0,0,0,3.75,1.28l3.39.62-2,12.83h-6.88Q920.53,105.09,916,101.6Z" style="fill:#fff"/><path d="M950.25,100.37q-5.09-5.34-5.08-15.71a66.81,66.81,0,0,1,1-10.17q2-13.33,9.34-19.35t19.82-6q9.35,0,15.45,3.75t6.11,13.19q0,10.89-6.16,14.89t-17.15,4A51.42,51.42,0,0,1,962.83,84a27,27,0,0,0-.2,2.88,4.69,4.69,0,0,0,2.72,4.42q2.71,1.43,8.67,1.43H992.1l-1.65,10.37a105.29,105.29,0,0,1-23.51,2.57Q955.33,105.71,950.25,100.37Zm27.68-26.8q2.46-1.74,2.46-5.54,0-5.34-6.26-5.34a8.14,8.14,0,0,0-6.78,3q-2.37,3-3.39,9.14c2.74.35,4.52.52,5.34.52C973.41,75.32,976.28,74.74,977.93,73.57Z" style="fill:#fff"/><path d="M999.18,102.84l1.64-10.37h24.44q4.11,0,4.62-2.88l.31-1.64.1-1c0-1.57-1.12-2.36-3.38-2.36h-7.6q-7.2,0-11.66-2.93a9.8,9.8,0,0,1-4.47-8.78,29.78,29.78,0,0,1,.31-4.82l.62-3.8a16.53,16.53,0,0,1,6.67-11q5.44-4,17-4a84.41,84.41,0,0,1,11.24.82,56.62,56.62,0,0,1,10,2.16l-1.65,10.37h-23a5.94,5.94,0,0,0-3.23.67,3.74,3.74,0,0,0-1.39,2.31l-.2.92-.21,1.75a2,2,0,0,0,.77,1.69,5,5,0,0,0,2.82.57h8.73q6.78,0,10.89,3a9.55,9.55,0,0,1,4.1,8.06,44.33,44.33,0,0,1-.3,4.93l-.72,4.83q-1.23,7.59-7.45,11t-17,3.39Q1007.81,105.71,999.18,102.84Z" style="fill:#fff"/></g></g></svg>